<svg xmlns="http://www.w3.org/2000/svg" xmlns:xlink="http://www.w3.org/1999/xlink" viewBox="0 0 150 42.357"><path d="M 27.384 15.257 C 27.384 15.775 26.926 16.195 26.361 16.195 C 25.795 16.195 25.337 15.775 25.337 15.257 C 25.337 14.739 25.795 14.319 26.361 14.319 C 26.926 14.319 27.384 14.739 27.384 15.257 Z M 31.648 17.048 C 32.213 17.048 32.672 16.59 32.672 16.025 C 32.672 15.459 32.213 15.001 31.648 15.001 C 31.083 15.001 30.625 15.459 30.625 16.025 C 30.625 16.59 31.083 17.048 31.648 17.048 Z M 26.822 18.627 C 27.199 18.848 27.325 19.334 27.103 19.711 C 26.552 20.647 25.616 21.589 24.228 22.168 C 24.058 22.239 23.923 22.305 23.817 22.363 L 23.84 22.376 C 24.06 22.499 24.345 22.623 24.668 22.753 C 25.074 22.915 25.271 23.376 25.109 23.782 C 24.947 24.188 24.486 24.385 24.08 24.223 C 23.743 24.088 23.381 23.933 23.068 23.758 C 22.781 23.598 22.415 23.358 22.198 23.006 C 22.078 22.81 21.989 22.556 22.013 22.264 C 22.037 21.975 22.164 21.734 22.319 21.546 C 22.606 21.199 23.072 20.935 23.619 20.707 C 24.667 20.269 25.348 19.57 25.738 18.908 C 25.96 18.531 26.445 18.405 26.822 18.627 Z M 31.391 25.327 C 31.736 25.596 31.799 26.093 31.53 26.438 C 29.628 28.884 27.468 29.888 25.502 30.093 C 23.569 30.294 21.884 29.715 20.892 29.09 C 20.522 28.857 20.411 28.368 20.645 27.998 C 20.878 27.628 21.367 27.517 21.737 27.75 C 22.461 28.207 23.794 28.679 25.338 28.518 C 26.851 28.36 28.628 27.59 30.28 25.466 C 30.548 25.121 31.046 25.059 31.391 25.327 Z M 66.576 12.286 L 66.997 9.91 L 73.739 10.731 L 73.294 13.051 L 82.807 14.135 L 80.709 27.314 L 74.007 26.848 L 75.062 20.044 L 72.116 19.709 L 70.781 26.881 L 64.103 26.273 L 65.399 18.944 L 62.685 18.634 L 63.448 11.93 Z M 101.695 19.042 L 99.598 18.846 L 98.996 26.664 L 92.389 26.182 L 93.001 18.231 L 83.717 17.366 L 84.734 10.977 L 102.31 12.446 Z M 86.698 26.891 C 84.534 26.521 83.081 24.467 83.451 22.303 C 83.822 20.139 85.876 18.686 88.039 19.056 C 90.203 19.427 91.657 21.481 91.286 23.645 C 90.916 25.808 88.861 27.262 86.698 26.891 Z M 139.557 18.846 L 141.654 19.042 L 142.269 12.446 L 124.693 10.977 L 123.676 17.366 L 132.961 18.231 L 132.349 26.182 L 138.955 26.664 Z M 123.411 22.303 C 123.04 24.467 124.494 26.521 126.657 26.891 C 128.821 27.262 130.875 25.808 131.246 23.645 C 131.616 21.481 130.162 19.427 127.999 19.056 C 125.835 18.686 123.781 20.139 123.411 22.303 Z M 105.994 13.898 L 106.254 11.479 L 112.996 11.719 L 112.761 14.084 L 122.808 14.346 L 120.665 27.026 L 113.978 26.47 L 114.86 20.877 L 112.036 20.815 L 111.601 24.856 L 104.892 24.133 L 105.269 20.629 L 102.606 20.535 L 103.36 13.822 Z M 144.314 26.515 C 144.725 26.691 145.167 26.779 145.638 26.779 C 146.11 26.779 146.551 26.691 146.962 26.515 C 147.374 26.339 147.736 26.095 148.048 25.783 C 148.361 25.47 148.605 25.109 148.781 24.697 C 148.957 24.285 149.045 23.844 149.045 23.373 C 149.045 22.901 148.957 22.46 148.781 22.048 C 148.605 21.637 148.361 21.275 148.048 20.962 C 147.736 20.65 147.374 20.406 146.962 20.23 C 146.551 20.054 146.11 19.966 145.638 19.966 C 145.167 19.966 144.725 20.054 144.314 20.23 C 143.902 20.406 143.54 20.65 143.228 20.962 C 142.916 21.275 142.672 21.637 142.496 22.048 C 142.319 22.46 142.232 22.901 142.232 23.373 C 142.232 23.844 142.319 24.285 142.496 24.697 C 142.672 25.109 142.916 25.47 143.228 25.783 C 143.54 26.095 143.902 26.339 144.314 26.515 Z M 146.941 25.612 C 146.549 25.845 146.115 25.962 145.638 25.962 C 145.161 25.962 144.727 25.845 144.335 25.612 C 143.943 25.38 143.631 25.067 143.398 24.676 C 143.166 24.284 143.049 23.849 143.049 23.373 C 143.049 22.896 143.166 22.461 143.398 22.069 C 143.631 21.678 143.943 21.365 144.335 21.133 C 144.727 20.9 145.161 20.783 145.638 20.783 C 146.115 20.783 146.549 20.9 146.941 21.133 C 147.333 21.365 147.645 21.678 147.878 22.069 C 148.111 22.461 148.227 22.896 148.227 23.373 C 148.227 23.849 148.111 24.284 147.878 24.676 C 147.645 25.067 147.333 25.38 146.941 25.612 Z M 92.771 31.455 C 92.621 31.455 92.496 31.449 92.396 31.436 C 92.296 31.418 92.218 31.383 92.162 31.333 C 92.106 31.284 92.065 31.212 92.04 31.118 C 92.022 31.024 92.012 30.897 92.012 30.734 C 92.012 30.578 92.022 30.453 92.04 30.36 C 92.065 30.266 92.106 30.194 92.162 30.145 C 92.218 30.095 92.296 30.063 92.396 30.051 C 92.496 30.038 92.621 30.032 92.771 30.032 C 92.927 30.032 93.052 30.038 93.145 30.051 C 93.245 30.063 93.323 30.095 93.379 30.145 C 93.435 30.194 93.473 30.266 93.491 30.36 C 93.517 30.453 93.529 30.578 93.529 30.734 C 93.529 30.897 93.517 31.024 93.491 31.118 C 93.473 31.212 93.435 31.284 93.379 31.333 C 93.323 31.383 93.245 31.418 93.145 31.436 C 93.052 31.449 92.927 31.455 92.771 31.455 Z M 92.087 32.157 L 93.445 32.157 L 93.445 37.212 L 92.087 37.212 Z M 71.169 37.306 C 70.695 37.306 70.264 37.259 69.877 37.165 C 69.49 37.072 69.159 36.903 68.885 36.66 C 68.61 36.41 68.398 36.07 68.248 35.639 C 68.098 35.203 68.024 34.644 68.024 33.964 C 68.024 33.34 68.095 32.816 68.239 32.391 C 68.389 31.961 68.601 31.614 68.875 31.352 C 69.15 31.09 69.477 30.903 69.858 30.79 C 70.245 30.678 70.679 30.622 71.16 30.622 C 71.771 30.622 72.276 30.694 72.676 30.837 L 72.676 32.064 C 72.476 31.995 72.258 31.942 72.021 31.904 C 71.783 31.861 71.528 31.839 71.253 31.839 C 70.96 31.839 70.707 31.876 70.495 31.951 C 70.282 32.02 70.108 32.138 69.971 32.307 C 69.833 32.469 69.73 32.685 69.662 32.953 C 69.599 33.221 69.568 33.555 69.568 33.954 C 69.568 34.379 69.599 34.728 69.662 35.003 C 69.73 35.271 69.833 35.487 69.971 35.649 C 70.108 35.805 70.28 35.914 70.485 35.976 C 70.698 36.039 70.947 36.07 71.234 36.07 C 71.503 36.07 71.759 36.052 72.002 36.014 C 72.252 35.97 72.501 35.905 72.751 35.818 L 72.751 37.034 C 72.557 37.116 72.323 37.181 72.049 37.231 C 71.774 37.281 71.481 37.306 71.169 37.306 Z M 76.734 32.064 L 76.697 33.271 L 76.566 33.271 C 76.41 33.271 76.254 33.29 76.098 33.327 C 75.948 33.359 75.811 33.415 75.686 33.496 C 75.561 33.577 75.452 33.686 75.358 33.824 C 75.265 33.961 75.199 34.132 75.162 34.338 L 75.162 37.212 L 73.804 37.212 L 73.804 32.157 L 75.162 32.157 L 75.162 33.065 C 75.237 32.859 75.327 32.691 75.433 32.56 C 75.546 32.429 75.664 32.326 75.789 32.251 C 75.914 32.176 76.048 32.126 76.191 32.101 C 76.335 32.076 76.482 32.064 76.632 32.064 Z M 81.869 34.694 C 81.882 34.563 81.888 34.426 81.888 34.282 C 81.888 33.958 81.857 33.661 81.795 33.393 C 81.739 33.118 81.629 32.884 81.467 32.691 C 81.305 32.491 81.083 32.338 80.802 32.232 C 80.522 32.12 80.163 32.064 79.726 32.064 C 79.332 32.064 78.98 32.104 78.668 32.185 C 78.356 32.266 78.094 32.407 77.882 32.607 C 77.669 32.806 77.507 33.075 77.395 33.411 C 77.282 33.749 77.226 34.173 77.226 34.685 C 77.226 35.196 77.282 35.621 77.395 35.958 C 77.507 36.295 77.666 36.563 77.872 36.763 C 78.084 36.963 78.344 37.103 78.649 37.184 C 78.955 37.265 79.302 37.306 79.688 37.306 C 79.907 37.306 80.116 37.293 80.316 37.268 C 80.522 37.25 80.709 37.225 80.877 37.194 C 81.046 37.162 81.192 37.125 81.317 37.081 C 81.448 37.038 81.551 36.994 81.626 36.95 L 81.626 35.883 C 81.545 35.927 81.439 35.97 81.308 36.014 C 81.183 36.058 81.046 36.095 80.896 36.126 C 80.746 36.158 80.59 36.186 80.428 36.211 C 80.266 36.229 80.106 36.239 79.95 36.239 C 79.501 36.239 79.167 36.154 78.949 35.986 C 78.73 35.818 78.609 35.552 78.584 35.19 L 81.841 34.984 C 81.854 34.916 81.863 34.819 81.869 34.694 Z M 80.615 33.702 C 80.64 33.82 80.653 33.948 80.653 34.086 L 78.584 34.245 C 78.59 34.045 78.615 33.874 78.659 33.73 C 78.702 33.58 78.768 33.458 78.855 33.365 C 78.943 33.271 79.055 33.203 79.192 33.159 C 79.336 33.109 79.514 33.084 79.726 33.084 C 79.925 33.084 80.085 33.112 80.203 33.168 C 80.328 33.218 80.422 33.29 80.484 33.383 C 80.553 33.471 80.596 33.577 80.615 33.702 Z M 85.089 32.073 C 85.514 32.073 85.869 32.11 86.156 32.185 C 86.45 32.254 86.684 32.357 86.859 32.494 C 87.039 32.631 87.168 32.803 87.242 33.009 C 87.323 33.209 87.364 33.443 87.364 33.711 L 87.364 37.212 L 86.147 37.212 L 86.016 36.623 C 85.91 36.81 85.719 36.972 85.445 37.109 C 85.17 37.24 84.824 37.306 84.406 37.306 C 83.838 37.306 83.407 37.181 83.114 36.932 C 82.821 36.675 82.674 36.285 82.674 35.761 C 82.674 35.175 82.849 34.763 83.198 34.525 C 83.554 34.289 84.072 34.17 84.752 34.17 L 86.007 34.17 L 86.007 34.039 C 86.007 33.889 85.991 33.761 85.96 33.655 C 85.935 33.549 85.882 33.465 85.801 33.402 C 85.719 33.333 85.61 33.284 85.473 33.253 C 85.336 33.221 85.155 33.206 84.93 33.206 C 84.749 33.206 84.568 33.215 84.387 33.234 C 84.206 33.246 84.028 33.268 83.854 33.299 L 83.854 32.148 C 84.047 32.123 84.256 32.104 84.481 32.092 C 84.705 32.079 84.908 32.073 85.089 32.073 Z M 84.752 36.267 C 85.064 36.267 85.33 36.214 85.548 36.108 C 85.766 35.995 85.919 35.852 86.007 35.677 L 86.007 35.087 L 84.958 35.087 C 84.621 35.087 84.378 35.128 84.228 35.209 C 84.084 35.29 84.013 35.459 84.013 35.714 C 84.013 35.914 84.069 36.058 84.181 36.145 C 84.3 36.226 84.49 36.267 84.752 36.267 Z M 90.221 35.481 L 90.221 33.225 L 91.269 33.225 L 91.269 32.157 L 90.221 32.157 L 90.221 30.959 L 88.863 30.959 L 88.863 32.157 L 88.199 32.157 L 88.199 33.225 L 88.863 33.225 L 88.863 35.593 C 88.863 35.924 88.891 36.198 88.947 36.417 C 89.01 36.635 89.107 36.807 89.238 36.932 C 89.369 37.056 89.54 37.144 89.753 37.194 C 89.971 37.243 90.236 37.268 90.548 37.268 C 90.661 37.268 90.773 37.262 90.885 37.25 C 90.998 37.243 91.104 37.234 91.204 37.222 L 91.204 36.173 C 91.097 36.198 90.963 36.211 90.801 36.211 C 90.682 36.211 90.586 36.201 90.511 36.182 C 90.436 36.158 90.377 36.12 90.333 36.07 C 90.289 36.014 90.258 35.939 90.239 35.846 C 90.227 35.752 90.221 35.63 90.221 35.481 Z M 95.664 32.157 L 94.157 32.157 L 95.983 37.212 L 97.64 37.212 L 99.484 32.157 L 98.033 32.157 L 96.854 35.799 L 96.797 35.799 Z M 104.523 34.282 C 104.523 34.426 104.517 34.563 104.504 34.694 C 104.498 34.819 104.489 34.916 104.476 34.984 L 101.219 35.19 C 101.244 35.552 101.366 35.818 101.584 35.986 C 101.802 36.154 102.136 36.239 102.586 36.239 C 102.742 36.239 102.901 36.229 103.063 36.211 C 103.225 36.186 103.381 36.158 103.531 36.126 C 103.681 36.095 103.818 36.058 103.943 36.014 C 104.074 35.97 104.18 35.927 104.261 35.883 L 104.261 36.95 C 104.186 36.994 104.083 37.038 103.952 37.081 C 103.827 37.125 103.681 37.162 103.512 37.194 C 103.344 37.225 103.157 37.25 102.951 37.268 C 102.751 37.293 102.542 37.306 102.324 37.306 C 101.937 37.306 101.59 37.265 101.284 37.184 C 100.979 37.103 100.719 36.963 100.507 36.763 C 100.301 36.563 100.142 36.295 100.03 35.958 C 99.918 35.621 99.861 35.196 99.861 34.685 C 99.861 34.173 99.918 33.749 100.03 33.411 C 100.142 33.075 100.304 32.806 100.517 32.607 C 100.729 32.407 100.991 32.266 101.303 32.185 C 101.615 32.104 101.968 32.064 102.361 32.064 C 102.798 32.064 103.157 32.12 103.437 32.232 C 103.718 32.338 103.94 32.491 104.102 32.691 C 104.264 32.884 104.374 33.118 104.43 33.393 C 104.492 33.661 104.523 33.958 104.523 34.282 Z M 103.288 34.086 C 103.288 33.948 103.275 33.82 103.25 33.702 C 103.232 33.577 103.188 33.471 103.119 33.383 C 103.057 33.29 102.963 33.218 102.838 33.168 C 102.72 33.112 102.561 33.084 102.361 33.084 C 102.149 33.084 101.971 33.109 101.827 33.159 C 101.69 33.203 101.578 33.271 101.49 33.365 C 101.403 33.458 101.337 33.58 101.294 33.73 C 101.25 33.874 101.225 34.045 101.219 34.245 Z M 108.649 37.231 C 108.993 37.281 109.355 37.306 109.735 37.306 C 110.628 37.306 111.268 37.14 111.654 36.81 C 112.041 36.473 112.235 35.986 112.235 35.349 C 112.235 35.044 112.21 34.785 112.16 34.572 C 112.11 34.354 112.013 34.167 111.87 34.011 C 111.732 33.848 111.539 33.711 111.289 33.599 C 111.046 33.48 110.731 33.374 110.344 33.281 C 110.107 33.225 109.913 33.171 109.763 33.121 C 109.62 33.071 109.508 33.018 109.426 32.962 C 109.352 32.9 109.302 32.831 109.277 32.756 C 109.252 32.681 109.239 32.591 109.239 32.485 C 109.239 32.21 109.32 32.026 109.482 31.933 C 109.651 31.839 109.919 31.792 110.288 31.792 C 110.425 31.792 110.568 31.798 110.718 31.811 C 110.874 31.823 111.027 31.842 111.177 31.867 C 111.327 31.892 111.464 31.92 111.589 31.951 C 111.714 31.976 111.817 32.001 111.898 32.026 L 111.898 30.856 C 111.723 30.794 111.492 30.741 111.205 30.697 C 110.924 30.647 110.6 30.622 110.232 30.622 C 109.476 30.622 108.89 30.769 108.472 31.062 C 108.06 31.349 107.854 31.836 107.854 32.522 C 107.854 32.816 107.882 33.062 107.938 33.262 C 107.994 33.461 108.091 33.633 108.228 33.777 C 108.366 33.914 108.546 34.032 108.771 34.132 C 109.002 34.226 109.292 34.313 109.642 34.395 C 109.891 34.457 110.091 34.516 110.241 34.572 C 110.397 34.629 110.516 34.691 110.596 34.76 C 110.684 34.828 110.743 34.906 110.775 34.994 C 110.806 35.081 110.821 35.187 110.821 35.312 C 110.821 35.455 110.803 35.577 110.765 35.677 C 110.728 35.777 110.662 35.858 110.568 35.92 C 110.481 35.983 110.362 36.026 110.213 36.052 C 110.069 36.076 109.891 36.089 109.679 36.089 C 109.511 36.089 109.339 36.083 109.164 36.07 C 108.996 36.052 108.831 36.033 108.668 36.014 C 108.506 35.989 108.353 35.961 108.21 35.93 C 108.066 35.898 107.944 35.864 107.844 35.827 L 107.844 37.072 C 108.044 37.128 108.312 37.181 108.649 37.231 Z M 114.775 33.225 L 114.775 35.481 C 114.775 35.63 114.782 35.752 114.794 35.846 C 114.813 35.939 114.844 36.014 114.888 36.07 C 114.932 36.12 114.991 36.158 115.066 36.182 C 115.14 36.201 115.237 36.211 115.356 36.211 C 115.518 36.211 115.652 36.198 115.758 36.173 L 115.758 37.222 C 115.659 37.234 115.553 37.243 115.44 37.25 C 115.328 37.262 115.216 37.268 115.103 37.268 C 114.791 37.268 114.526 37.243 114.307 37.194 C 114.095 37.144 113.924 37.056 113.793 36.932 C 113.661 36.807 113.565 36.635 113.502 36.417 C 113.446 36.198 113.418 35.924 113.418 35.593 L 113.418 33.225 L 112.754 33.225 L 112.754 32.157 L 113.418 32.157 L 113.418 30.959 L 114.775 30.959 L 114.775 32.157 L 115.824 32.157 L 115.824 33.225 Z M 119.984 37.212 L 121.211 37.212 L 121.211 32.157 L 119.862 32.157 L 119.862 35.499 C 119.781 35.761 119.65 35.945 119.469 36.052 C 119.295 36.151 119.076 36.201 118.814 36.201 C 118.483 36.201 118.261 36.126 118.149 35.976 C 118.043 35.827 117.99 35.587 117.99 35.256 L 117.99 32.157 L 116.633 32.157 L 116.633 35.621 C 116.633 35.896 116.661 36.139 116.717 36.351 C 116.779 36.557 116.876 36.732 117.007 36.875 C 117.145 37.019 117.319 37.128 117.532 37.203 C 117.75 37.272 118.015 37.306 118.327 37.306 C 118.702 37.306 119.017 37.25 119.273 37.137 C 119.535 37.025 119.738 36.847 119.881 36.604 Z M 127.21 37.212 L 125.983 37.212 L 125.88 36.51 C 125.781 36.741 125.612 36.932 125.375 37.081 C 125.144 37.231 124.797 37.306 124.336 37.306 C 123.924 37.306 123.587 37.246 123.325 37.128 C 123.062 37.003 122.857 36.828 122.707 36.604 C 122.557 36.373 122.454 36.095 122.398 35.771 C 122.342 35.446 122.314 35.084 122.314 34.685 C 122.314 34.323 122.342 33.982 122.398 33.664 C 122.454 33.346 122.557 33.068 122.707 32.831 C 122.857 32.594 123.062 32.407 123.325 32.27 C 123.587 32.132 123.924 32.064 124.336 32.064 C 124.797 32.064 125.141 32.132 125.365 32.27 C 125.596 32.401 125.762 32.578 125.861 32.803 L 125.861 30.098 L 127.21 30.098 Z M 124.766 36.276 C 124.997 36.276 125.188 36.242 125.337 36.173 C 125.487 36.104 125.606 36.002 125.693 35.864 C 125.781 35.727 125.84 35.561 125.871 35.368 C 125.908 35.168 125.927 34.94 125.927 34.685 C 125.927 34.441 125.908 34.223 125.871 34.029 C 125.84 33.83 125.781 33.661 125.693 33.524 C 125.606 33.38 125.487 33.271 125.337 33.196 C 125.188 33.115 124.997 33.075 124.766 33.075 C 124.529 33.075 124.339 33.118 124.195 33.206 C 124.058 33.293 123.952 33.411 123.877 33.561 C 123.808 33.705 123.761 33.874 123.737 34.067 C 123.718 34.261 123.709 34.466 123.709 34.685 C 123.709 34.916 123.718 35.131 123.737 35.331 C 123.761 35.524 123.811 35.693 123.886 35.836 C 123.961 35.974 124.067 36.083 124.205 36.164 C 124.348 36.239 124.535 36.276 124.766 36.276 Z M 128.854 31.436 C 128.954 31.449 129.078 31.455 129.228 31.455 C 129.384 31.455 129.509 31.449 129.603 31.436 C 129.702 31.418 129.78 31.383 129.837 31.333 C 129.893 31.284 129.93 31.212 129.949 31.118 C 129.974 31.024 129.986 30.897 129.986 30.734 C 129.986 30.578 129.974 30.453 129.949 30.36 C 129.93 30.266 129.893 30.194 129.837 30.145 C 129.78 30.095 129.702 30.063 129.603 30.051 C 129.509 30.038 129.384 30.032 129.228 30.032 C 129.078 30.032 128.954 30.038 128.854 30.051 C 128.754 30.063 128.676 30.095 128.62 30.145 C 128.563 30.194 128.523 30.266 128.498 30.36 C 128.479 30.453 128.47 30.578 128.47 30.734 C 128.47 30.897 128.479 31.024 128.498 31.118 C 128.523 31.212 128.563 31.284 128.62 31.333 C 128.676 31.383 128.754 31.418 128.854 31.436 Z M 129.902 32.157 L 128.545 32.157 L 128.545 37.212 L 129.902 37.212 Z M 133.47 37.306 C 133.077 37.306 132.724 37.265 132.412 37.184 C 132.106 37.103 131.847 36.963 131.635 36.763 C 131.429 36.563 131.27 36.295 131.158 35.958 C 131.046 35.621 130.989 35.196 130.989 34.685 C 130.989 34.173 131.046 33.749 131.158 33.411 C 131.27 33.075 131.429 32.806 131.635 32.607 C 131.847 32.407 132.106 32.266 132.412 32.185 C 132.724 32.104 133.077 32.064 133.47 32.064 C 133.863 32.064 134.213 32.104 134.518 32.185 C 134.824 32.266 135.08 32.407 135.286 32.607 C 135.498 32.806 135.661 33.075 135.773 33.411 C 135.885 33.749 135.941 34.173 135.941 34.685 C 135.941 35.196 135.885 35.621 135.773 35.958 C 135.661 36.295 135.498 36.563 135.286 36.763 C 135.08 36.963 134.824 37.103 134.518 37.184 C 134.213 37.265 133.863 37.306 133.47 37.306 Z M 133.47 36.276 C 133.676 36.276 133.847 36.251 133.985 36.201 C 134.128 36.151 134.241 36.067 134.322 35.948 C 134.409 35.824 134.468 35.658 134.5 35.452 C 134.537 35.246 134.556 34.99 134.556 34.685 C 134.556 34.379 134.537 34.123 134.5 33.917 C 134.462 33.711 134.4 33.546 134.312 33.421 C 134.231 33.296 134.122 33.209 133.985 33.159 C 133.847 33.103 133.676 33.075 133.47 33.075 C 133.264 33.075 133.089 33.103 132.946 33.159 C 132.808 33.209 132.696 33.296 132.609 33.421 C 132.528 33.546 132.468 33.711 132.431 33.917 C 132.4 34.123 132.384 34.379 132.384 34.685 C 132.384 34.99 132.403 35.246 132.44 35.452 C 132.478 35.658 132.537 35.824 132.618 35.948 C 132.705 36.067 132.818 36.151 132.955 36.201 C 133.092 36.251 133.264 36.276 133.47 36.276 Z M 51.465 32.524 C 53.879 33.452 54.064 40.481 48.308 41.066 C 42.551 41.651 38.652 39.395 34.879 37.009 C 34.332 37.434 33.724 37.836 33.047 38.18 C 28.227 40.626 22.814 39.803 18.947 36.969 C 18.757 37.182 18.572 37.414 18.378 37.655 L 18.378 37.656 C 17.232 39.088 14.323 40.426 11.163 40.426 C 8.004 40.426 2.81 38.941 2.436 34.856 C 2.07 30.869 5.349 29.311 5.349 29.311 C 3.178 28.347 -0.161 24.212 1.324 18.908 C 2.81 13.603 9.309 13.47 10.841 14.034 C 10.834 13.997 10.826 13.957 10.818 13.914 C 10.584 12.683 9.971 9.47 12.425 7.424 C 14.456 5.732 18.104 6.348 19.303 7.053 C 20.206 2.709 23.44 3.551 24.945 4.514 C 26.002 1.482 27.413 1.059 29.317 1.059 C 30.84 1.059 31.785 2.375 32.067 3.033 C 33.195 1.482 35.864 0.239 37.906 1.43 C 39.949 2.622 39.46 4.601 39.02 5.33 C 39.999 4.773 41.991 4.401 43.106 5.701 C 44.22 7.001 43.48 8.487 43.106 9.044 L 43.109 9.042 C 44.593 8.3 46.075 7.559 47.931 8.672 C 49.788 9.787 48.86 12.386 48.488 13.129 C 50.531 12.943 53.11 13.147 54.993 15.001 C 56.876 16.855 55.543 19.647 54.25 21.011 C 58.914 21.595 59.073 26.128 57.036 28.81 C 54.998 31.492 51.465 32.524 51.465 32.524 Z M 32.281 36.67 C 32.953 36.329 33.543 35.924 34.073 35.489 L 34.073 35.488 C 34.959 34.761 35.675 33.953 36.317 33.228 L 36.317 33.227 C 36.471 33.053 36.621 32.884 36.768 32.722 C 38.57 30.734 39.479 29.047 39.754 28.209 C 40.576 27.691 42.137 26.319 41.798 24.965 C 41.51 23.811 40.828 23.05 39.999 23.152 C 39.896 23.165 39.791 23.191 39.685 23.231 L 39.683 23.231 C 38.893 21.168 40.2 20.377 40.952 20.24 C 35.029 20.804 34.77 16.244 35.381 13.893 C 32.393 14.232 31.41 11.452 31.291 10.018 C 30.906 10.665 30.365 11.028 29.782 11.209 C 29.596 11.267 29.407 11.306 29.217 11.33 C 28.341 11.44 27.454 11.226 26.921 11.003 C 27.04 11.715 26.804 12.244 26.426 12.626 C 25.904 13.153 25.111 13.402 24.594 13.47 C 24.43 14.41 23.635 16.573 21.773 17.701 L 21.632 17.787 C 19.271 19.214 15.016 21.788 15.638 28.561 C 15.74 29.665 16.077 30.734 16.596 31.734 C 19.331 36.997 26.335 39.689 32.281 36.67 Z M 146.039 21.763 C 146.166 21.763 146.305 21.8 146.456 21.874 C 146.606 21.945 146.734 22.055 146.839 22.206 C 146.947 22.353 147.001 22.541 147.001 22.768 C 147.001 22.998 146.946 23.194 146.835 23.356 C 146.737 23.496 146.62 23.607 146.484 23.687 L 147.129 24.906 L 146.371 24.906 L 145.82 23.841 L 145.136 23.841 L 145.136 24.906 L 144.446 24.906 L 144.446 21.763 Z M 145.136 23.33 L 145.775 23.33 C 145.868 23.33 145.969 23.283 146.077 23.189 C 146.188 23.096 146.243 22.955 146.243 22.768 C 146.243 22.575 146.188 22.444 146.077 22.376 C 145.969 22.308 145.874 22.274 145.791 22.274 L 145.136 22.274 Z" fill="#222222"></path></svg>