<svg xmlns="http://www.w3.org/2000/svg" xmlns:xlink="http://www.w3.org/1999/xlink" viewBox="0 0 30 23.196"><path d="M 21.436 19.512 C 22.96 19.393 23.698 18.556 23.625 17.51 L 23.437 14.773 C 21.822 15.674 20.093 16.419 18.453 16.972 C 18.475 15.721 18.492 14.474 18.503 13.232 C 19.843 13.191 21.174 13.147 22.475 13.102 C 23.658 13.061 24.188 12.568 24.231 11.091 C 22.334 11.162 20.419 11.234 18.513 11.296 C 18.516 10.558 18.516 9.82 18.515 9.084 C 19.759 9.045 20.893 9.002 21.733 8.961 C 22.916 8.902 23.393 8.493 23.488 6.951 C 20.574 7.069 17.097 7.181 14.082 7.22 C 14.358 6.881 14.62 6.514 14.868 6.115 L 12.164 5.687 C 11.399 6.91 10.252 8.193 9.028 9.29 L 10.05 10.378 C 10.693 10.034 11.323 9.66 11.931 9.226 C 12.85 9.217 13.932 9.199 15.056 9.176 C 15.062 9.894 15.065 10.64 15.067 11.4 C 13.203 11.449 11.367 11.484 9.584 11.497 L 9.458 13.438 C 11.293 13.414 13.176 13.376 15.065 13.327 C 15.059 14.862 15.044 16.412 15.018 17.874 C 14.886 17.897 14.755 17.919 14.627 17.939 C 13.04 18.178 12.284 17.888 12.249 16.926 C 12.234 16.515 12.318 15.986 12.479 15.274 L 9.494 14.914 C 9.199 15.877 9.093 16.977 9.143 17.774 C 9.291 20.184 11.634 21.095 15.77 20.046 C 17.191 19.686 19.783 18.601 21.307 17.769 Z M 4.151 5.854 C 5.416 5.854 6.44 4.828 6.44 3.565 C 6.44 2.3 5.415 1.276 4.151 1.276 C 2.886 1.276 1.862 2.301 1.862 3.565 C 1.862 4.83 2.886 5.854 4.151 5.854 Z M 3.019 7.687 L 1.521 9.925 C 3.212 10.658 4.487 11.394 5.015 11.755 C 5.64 12.182 5.762 12.644 5.442 13.362 C 5.143 14.032 3.175 16.98 0 20.619 L 4.066 22.557 C 5.751 18.544 7.111 15.192 7.549 13.496 C 7.79 12.564 7.843 11.629 7.448 11.014 C 6.792 9.993 5.739 9.129 3.019 7.687 Z M 20.458 1.251 C 17.925 1.167 14.605 1.932 12.334 3.169 C 12.911 2.477 13.468 1.267 13.676 0.582 L 9.826 0 C 9.438 2.248 8.101 5.271 6.805 6.717 L 7.852 7.651 C 11.544 4.883 15.801 3.613 20.205 3.707 C 23.461 3.775 25.229 5.293 25.655 7.958 C 26.038 10.356 26.061 13.538 25.54 16.227 C 24.67 20.71 22.978 21.878 18.624 20.992 L 18.357 22.498 C 19.607 22.82 20.577 23.016 21.861 23.073 C 27.652 23.332 29.598 19.383 29.697 12.187 C 29.686 3.274 25.923 1.436 20.458 1.251 Z" fill="rgb(255,255,255)"></path></svg>