<svg xmlns="http://www.w3.org/2000/svg" xmlns:xlink="http://www.w3.org/1999/xlink" viewBox="0 0 51 18"><path d="M 6.467 14.907 L 4.271 14.907 C 4.271 17.486 6.446 17.707 6.446 17.707 L 7.554 17.707 C 9.77 17.707 9.871 15.169 9.871 15.169 L 9.871 0 L 6.467 0 Z M 0.806 4.533 L 4.271 4.533 C 4.271 4.533 4.331 14.867 1.853 15.915 L 0 12.51 C 0 12.51 1.108 9.065 0.806 4.533 Z M 12.087 4.533 L 15.572 4.533 C 15.301 8.599 16.165 11.789 16.331 12.403 C 16.35 12.473 16.36 12.51 16.358 12.51 L 14.504 15.915 C 12.047 14.847 12.087 4.533 12.087 4.533 Z M 20.427 7.655 L 18.171 7.655 C 16.559 7.595 17.566 5.6 17.566 5.6 L 20.346 0 L 23.61 0 L 21.273 4.492 C 21.152 4.694 21.313 4.956 21.555 4.956 L 21.757 4.956 L 21.958 4.553 L 25.222 4.553 L 22.421 10.052 C 22.301 10.254 22.462 10.516 22.703 10.516 L 24.577 10.516 L 23.066 13.235 L 19.299 13.235 C 17.687 13.155 18.695 11.18 18.695 11.18 Z M 18.654 14.323 C 18.654 14.323 18.231 14.363 17.969 14.081 L 16.277 17.325 C 16.277 17.325 16.559 17.707 17.123 17.707 L 21.313 17.707 L 23.106 14.323 Z M 33.441 4.533 L 31.285 4.533 L 31.285 14.444 L 34.549 14.444 L 34.549 17.707 L 23.086 17.707 L 24.718 14.444 L 27.941 14.444 L 27.941 4.533 L 25.745 4.533 L 25.745 1.068 L 33.441 1.068 Z M 46.696 7.091 L 46.293 7.091 L 46.293 4.855 C 46.293 2.76 44.601 1.068 42.506 1.068 L 41.197 1.068 L 41.197 0 L 37.873 0 L 37.873 1.048 L 35.778 1.048 L 35.778 4.432 L 37.873 4.432 L 37.873 7.071 L 34.549 7.071 L 34.549 10.475 L 37.873 10.475 L 37.873 17.707 L 41.197 17.707 L 41.197 10.475 L 45.77 10.475 C 46.213 10.475 46.575 10.838 46.575 11.281 L 46.575 14.847 L 43.413 14.847 C 43.413 16.418 44.682 17.707 46.273 17.707 L 47.139 17.707 C 48.711 17.707 50 16.438 50 14.847 L 50 10.375 C 49.98 8.562 48.509 7.091 46.696 7.091 Z M 41.197 4.452 L 42.385 4.452 C 42.667 4.452 42.909 4.674 42.909 4.976 L 42.909 7.091 L 41.197 7.091 Z M 48.268 1.068 C 49.174 1.068 49.919 1.813 49.919 2.72 C 49.919 3.626 49.194 4.371 48.268 4.371 L 46.616 4.371 L 46.616 2.72 C 46.616 1.813 47.361 1.068 48.268 1.068 Z" fill="rgb(255, 255, 255)"></path></svg>